<svg width="35" height="12" viewBox="0 0 12 12" fill="none" xmlns="http://www.w3.org/2000/svg">
<path d="M3.76264 1.26357L3.76266 1.26359L7.12652 4.24027L7.32289 4.41404L7.55351 4.28924L9.72247 3.11549L9.72257 3.11543C10.233 2.83903 10.8704 3.02726 11.149 3.53564L11.1834 3.60415C11.4237 4.12974 11.1959 4.75105 10.6727 4.99667L10.6018 5.02687L8.30929 5.92002L8.06486 6.01525L8.07051 6.27751L8.16717 10.769C8.1739 11.082 7.99469 11.3693 7.71061 11.5009C7.56344 11.5691 7.38913 11.5064 7.31892 11.3608L7.31214 11.3449L6.00016 7.24659L5.87856 6.86676L5.50693 7.01148L3.76124 7.69128L3.52986 7.78138L3.52248 8.02957L3.46483 9.96841C3.46212 10.0594 3.40822 10.1411 3.32561 10.1794C3.32293 10.1806 3.31976 10.1795 3.31853 10.1768L2.55867 8.53693L2.41041 8.21699L2.08196 8.3453L1.32815 8.63979C1.13839 8.71372 0.923849 8.62736 0.838226 8.44258L0.799498 8.359C0.713875 8.17422 0.786684 7.95471 0.965766 7.85773L1.67775 7.47215L1.98754 7.30438L1.83942 6.98474L1.07988 5.34558C1.07865 5.34291 1.07981 5.33974 1.08248 5.3385C1.16508 5.30023 1.2622 5.31189 1.33338 5.36863C1.3334 5.36864 1.33342 5.36866 1.33344 5.36867L2.84885 6.57769L3.04298 6.73257L3.26134 6.61428L4.90922 5.72159L5.26001 5.53156L5.04865 5.19319L2.7822 1.56477C2.7822 1.56476 2.78219 1.56476 2.78219 1.56475C2.69546 1.42586 2.73774 1.24296 2.87662 1.15622C2.88705 1.14971 2.89787 1.14385 2.90903 1.13868C3.19311 1.00705 3.52818 1.05607 3.76264 1.26357Z" stroke="#3A3A3A" stroke-width="0.75"/>
</svg>
