<svg width="14" height="14" viewBox="0 0 14 14" fill="none" xmlns="http://www.w3.org/2000/svg">
<path d="M4.76264 2.26357L4.76266 2.26359L8.12652 5.24027L8.32289 5.41404L8.55351 5.28924L10.7225 4.11549L10.7226 4.11543C11.233 3.83903 11.8704 4.02726 12.149 4.53564L12.1834 4.60415C12.4237 5.12974 12.1959 5.75105 11.6727 5.99667L11.6018 6.02687L9.30929 6.92002L9.06486 7.01525L9.07051 7.27751L9.16717 11.769C9.1739 12.082 8.99469 12.3693 8.71061 12.5009C8.56344 12.5691 8.38913 12.5064 8.31892 12.3608L8.31214 12.3449L7.00016 8.24659L6.87856 7.86676L6.50693 8.01148L4.76124 8.69128L4.52986 8.78138L4.52248 9.02957L4.46483 10.9684C4.46212 11.0594 4.40822 11.1411 4.32561 11.1794C4.32293 11.1806 4.31976 11.1795 4.31853 11.1768L3.55867 9.53693L3.41041 9.21699L3.08196 9.3453L2.32815 9.63979C2.13839 9.71372 1.92385 9.62736 1.83823 9.44258L1.7995 9.359C1.71387 9.17422 1.78668 8.95471 1.96577 8.85773L2.67775 8.47215L2.98754 8.30438L2.83942 7.98474L2.07988 6.34558C2.07865 6.34291 2.07981 6.33974 2.08248 6.3385C2.16508 6.30023 2.2622 6.31189 2.33338 6.36863C2.3334 6.36864 2.33342 6.36866 2.33344 6.36867L3.84885 7.57769L4.04298 7.73257L4.26134 7.61428L5.90922 6.72159L6.26001 6.53156L6.04865 6.19319L3.7822 2.56477C3.7822 2.56476 3.78219 2.56476 3.78219 2.56475C3.69546 2.42586 3.73774 2.24296 3.87662 2.15622C3.88705 2.14971 3.89787 2.14385 3.90903 2.13868C4.19311 2.00705 4.52818 2.05607 4.76264 2.26357Z" stroke="#3A3A3A" stroke-width="0.75"/>
</svg>
