<svg width="14" height="14" viewBox="0 0 14 14" fill="none" xmlns="http://www.w3.org/2000/svg">
<path d="M13.9996 6.12582L13.5132 0.989202C13.4886 0.723005 13.2766 0.512676 13.0104 0.486385L7.87412 0H7.86755C7.81497 0 7.77389 0.016432 7.74267 0.0476526L0.0480514 7.74272C0.0328193 7.75792 0.0207346 7.77598 0.0124893 7.79586C0.00424403 7.81574 0 7.83705 0 7.85857C0 7.88009 0.00424403 7.9014 0.0124893 7.92128C0.0207346 7.94115 0.0328193 7.95921 0.0480514 7.97441L6.02564 13.9523C6.05686 13.9836 6.09793 14 6.1423 14C6.18666 14 6.22774 13.9836 6.25896 13.9523L13.9536 6.25728C13.9864 6.22277 14.0029 6.17512 13.9996 6.12582ZM6.14066 12.3026L1.69772 7.85939L8.26518 1.29155L12.3236 1.67606L12.7081 5.73474L6.14066 12.3026ZM9.7604 2.79343C8.96349 2.79343 8.31447 3.44249 8.31447 4.23944C8.31447 5.03639 8.96349 5.68545 9.7604 5.68545C10.5573 5.68545 11.2063 5.03639 11.2063 4.23944C11.2063 3.44249 10.5573 2.79343 9.7604 2.79343ZM9.7604 4.76526C9.46957 4.76526 9.23461 4.53028 9.23461 4.23944C9.23461 3.94859 9.46957 3.71362 9.7604 3.71362C10.0512 3.71362 10.2862 3.94859 10.2862 4.23944C10.2862 4.53028 10.0512 4.76526 9.7604 4.76526Z" fill="#737373"/>
</svg>
