<svg width="131" height="130" viewBox="0 0 131 130" fill="none" xmlns="http://www.w3.org/2000/svg">
<path d="M27.6428 2.18139C32.4643 -0.0527595 38.1511 0.779247 42.1305 4.30102L80.8149 38.5329L105.758 25.0347C113.74 20.712 123.715 23.6785 128.038 31.6605L128.498 32.5773C132.314 40.8134 128.731 50.5839 120.495 54.4002L119.551 54.8022L93.1244 65.0979L94.236 116.75C94.3503 122.062 91.3087 126.939 86.4871 129.173C82.6175 130.966 78.0269 129.283 76.2339 125.413L76.0457 124.971L60.8967 77.65L40.8212 85.4676L40.1582 107.764C40.0785 110.444 38.4918 112.848 36.0597 113.975C33.8679 114.991 31.2679 114.037 30.2523 111.845L21.5139 92.9872L12.8413 96.3753C8.53711 98.0522 3.67093 96.0934 1.72883 91.9022L1.28346 90.941C-0.658633 86.7498 0.992815 81.7709 5.05474 79.5711L13.2426 75.137L4.5079 56.2866C3.49232 54.0949 4.44577 51.4948 6.63751 50.4793C9.06966 49.3523 11.9298 49.6961 14.0255 51.3675L31.4534 65.2717L50.404 55.0058L24.3397 13.2787C22.0805 9.66131 23.1815 4.89741 26.7988 2.6382C27.0704 2.46858 27.3523 2.31602 27.6428 2.18139Z" fill="white"/>
</svg>
