<svg width="15" height="17" viewBox="0 0 15 17" fill="none" xmlns="http://www.w3.org/2000/svg">
<path d="M3.70894 1.00467C3.60438 0.7026 3.31986 0.5 3.0002 0.5C2.68055 0.5 2.39603 0.7026 2.29146 1.00467L0.0414647 7.50467C-0.0940289 7.89609 0.113445 8.32325 0.504871 8.45874C0.896297 8.59423 1.32345 8.38676 1.45894 7.99533L1.80348 7H4.19693L4.54146 7.99533C4.67696 8.38676 5.10411 8.59423 5.49554 8.45874C5.88696 8.32325 6.09444 7.89609 5.95894 7.50467L3.70894 1.00467ZM3.0002 3.5428L3.6777 5.5H2.32271L3.0002 3.5428ZM1.00019 9.5C0.585973 9.5 0.250186 9.83579 0.250186 10.25C0.250186 10.6642 0.585973 11 1.00019 11H3.52736L0.393634 15.3089C0.227715 15.537 0.203842 15.839 0.33185 16.0903C0.459858 16.3417 0.718093 16.5 1.00019 16.5H5.00019C5.4144 16.5 5.75019 16.1642 5.75019 15.75C5.75019 15.3358 5.4144 15 5.00019 15H2.47301L5.60674 10.6911C5.77266 10.463 5.79653 10.161 5.66852 9.90967C5.54051 9.65829 5.28228 9.5 5.00019 9.5H1.00019ZM11.25 0.5C11.6642 0.5 12 0.835786 12 1.25V13.8219L13.4471 12.2432C13.727 11.9379 14.2015 11.9172 14.5068 12.1971C14.8121 12.477 14.8328 12.9515 14.5529 13.2568L11.8029 16.2568C11.6608 16.4118 11.4602 16.5 11.25 16.5C11.0398 16.5 10.8392 16.4118 10.6971 16.2568L7.94714 13.2568C7.66724 12.9515 7.68787 12.477 7.99321 12.1971C8.29855 11.9172 8.77298 11.9379 9.05287 12.2432L10.5 13.8219V1.25C10.5 0.835786 10.8358 0.5 11.25 0.5Z" fill="white"/>
</svg>
