<svg width="15" height="14.5" viewBox="0 0 31 29" fill="none" xmlns="http://www.w3.org/2000/svg">
<path d="M14.7737 20.1295C14.8037 20.1679 14.8421 20.199 14.886 20.2203C14.9299 20.2417 14.978 20.2528 15.0268 20.2528C15.0756 20.2528 15.1237 20.2417 15.1676 20.2203C15.2114 20.199 15.2498 20.1679 15.2799 20.1295L19.7799 14.4362C19.9446 14.2272 19.796 13.9179 19.5268 13.9179H16.5496V0.321429C16.5496 0.144643 16.4049 0 16.2281 0H13.8174C13.6406 0 13.496 0.144643 13.496 0.321429V13.9138H10.5268C10.2576 13.9138 10.1089 14.2232 10.2737 14.4321L14.7737 20.1295ZM29.7321 18.7232H27.3214C27.1446 18.7232 27 18.8679 27 19.0446V25.2321H3.05357V19.0446C3.05357 18.8679 2.90893 18.7232 2.73214 18.7232H0.321429C0.144643 18.7232 0 18.8679 0 19.0446V27C0 27.7112 0.574554 28.2857 1.28571 28.2857H28.7679C29.479 28.2857 30.0536 27.7112 30.0536 27V19.0446C30.0536 18.8679 29.9089 18.7232 29.7321 18.7232Z" fill="#FF5925" fill-opacity="0.85"/>
</svg>
